<svg width="172" height="173" viewBox="0 0 172 173" fill="none" xmlns="http://www.w3.org/2000/svg">
<g clip-path="url(#clip0_1_230)">
<path d="M86 172.922C133.496 172.922 172 134.418 172 86.9219C172 39.4254 133.496 0.921875 86 0.921875C38.5035 0.921875 0 39.4254 0 86.9219C0 134.418 38.5035 172.922 86 172.922Z" fill="#FFF3E0"/>
<mask id="mask0_1_230" style="mask-type:alpha" maskUnits="userSpaceOnUse" x="0" y="0" width="172" height="173">
<path d="M86 172.922C133.496 172.922 172 134.418 172 86.9219C172 39.4254 133.496 0.921875 86 0.921875C38.5035 0.921875 0 39.4254 0 86.9219C0 134.418 38.5035 172.922 86 172.922Z" fill="#F0ECE8"/>
</mask>
<g mask="url(#mask0_1_230)">
<path d="M105.368 54.5977C105.361 54.5977 105.355 54.5977 105.349 54.5977C105.347 54.5977 105.344 54.5977 105.342 54.5977C105.339 54.5977 105.337 54.5977 105.335 54.5977C103.922 54.6001 102.51 54.7239 101.121 54.9456C100.133 55.1086 99.1631 55.3279 98.2135 55.5987C108.958 58.6838 116.885 68.2234 116.885 79.7148C116.885 87.5562 113.085 90.6193 107.328 99.0746L86.009 126.519L121.786 99.0734C127.544 94.4175 131.342 87.5562 131.342 79.7148C131.342 65.7472 119.58 54.5977 105.368 54.5977Z" fill="#FF9C08"/>
<path d="M86.0466 59.5998C81.0821 54.9155 74.2029 52.0977 66.6504 52.0977C50.8829 52.0977 38.1757 64.4192 38.1757 79.7148C38.1757 88.516 42.5078 96.4626 49.3374 101.558L84.4881 128.503L86.0095 129.669L87.5306 128.502L123.307 101.058L123.312 101.055C129.782 96.0672 133.842 88.3625 133.842 79.7148C133.842 64.2739 120.868 52.0977 105.368 52.0977C97.9941 52.0977 91.152 54.9402 86.0466 59.5998Z" fill="#FF9C08" stroke="#090909" stroke-width="5"/>
<path d="M66.6504 62.0713C56.6036 62.0713 48.5171 70.0353 48.5171 79.7133C48.5171 81.7962 50.1099 83.389 52.1928 83.389C54.2756 83.389 55.8684 81.7962 55.8684 79.7133C55.8684 74.0773 60.7693 69.4227 66.6504 69.4227C68.7333 69.4227 70.3261 67.8299 70.3261 65.747C70.3261 63.6641 68.7333 62.0713 66.6504 62.0713Z" fill="white"/>
</g>
</g>
<defs>
<clipPath id="clip0_1_230">
<rect width="172" height="172" fill="white" transform="translate(0 0.921875)"/>
</clipPath>
</defs>
</svg>
