<svg width="172" height="173" viewBox="0 0 172 173" fill="none" xmlns="http://www.w3.org/2000/svg">
<g clip-path="url(#clip0_1_242)">
<path d="M86 172.922C133.496 172.922 172 134.418 172 86.9219C172 39.4254 133.496 0.921875 86 0.921875C38.5035 0.921875 0 39.4254 0 86.9219C0 134.418 38.5035 172.922 86 172.922Z" fill="#FFF3E0"/>
<mask id="mask0_1_242" style="mask-type:alpha" maskUnits="userSpaceOnUse" x="0" y="0" width="172" height="173">
<path d="M86 172.922C133.496 172.922 172 134.418 172 86.9219C172 39.4254 133.496 0.921875 86 0.921875C38.5035 0.921875 0 39.4254 0 86.9219C0 134.418 38.5035 172.922 86 172.922Z" fill="#F0ECE8"/>
</mask>
<g mask="url(#mask0_1_242)">
<path d="M123.983 72.3686V59.4611C123.983 49.3629 115.859 41.2388 105.761 41.2388C95.6629 41.2388 87.5388 49.3629 87.5388 59.4611V72.3686" fill="#F08200"/>
<path d="M79.187 106.535C93.8635 106.535 105.761 94.6374 105.761 79.9609C105.761 65.2843 93.8635 53.3867 79.187 53.3867C64.5104 53.3867 52.6127 65.2843 52.6127 79.9609C52.6127 94.6374 64.5104 106.535 79.187 106.535Z" fill="#FF9C08"/>
<path d="M131.576 71.6094H40.4645L47.2219 125.669C47.6775 129.465 50.9423 132.351 54.7386 132.351H117.226C121.022 132.351 124.287 129.465 124.743 125.669L131.576 71.6094Z" fill="white"/>
<path d="M63.2424 119.443C62.1035 119.443 61.1165 118.608 60.9646 117.469L57.1683 87.0983C57.0164 85.8835 57.9276 84.7446 59.1424 84.5927C60.3572 84.4409 61.4961 85.352 61.6479 86.5668L65.4443 116.938C65.5961 118.152 64.685 119.291 63.4702 119.443C63.3943 119.443 63.3183 119.443 63.2424 119.443Z" fill="#090909"/>
<path d="M78.4277 119.443C77.1369 119.443 76.1499 118.456 76.1499 117.165V86.7944C76.1499 85.5037 77.1369 84.5166 78.4277 84.5166C79.7184 84.5166 80.7055 85.5037 80.7055 86.7944V117.165C80.7055 118.456 79.7184 119.443 78.4277 119.443Z" fill="#090909"/>
<path d="M93.613 119.443C92.3222 119.443 91.3352 118.456 91.3352 117.165V86.7944C91.3352 85.5037 92.3222 84.5166 93.613 84.5166C94.9037 84.5166 95.8908 85.5037 95.8908 86.7944V117.165C95.8908 118.456 94.9037 119.443 93.613 119.443Z" fill="#090909"/>
<path d="M108.798 119.443C108.722 119.443 108.646 119.443 108.494 119.443C107.28 119.291 106.369 118.152 106.52 116.938L110.317 86.5668C110.469 85.352 111.607 84.4409 112.822 84.5927C114.037 84.7446 114.948 85.8835 114.796 87.0983L111 117.469C110.924 118.608 109.937 119.443 108.798 119.443Z" fill="#090909"/>
<path d="M59.4461 60.2204H53.372C46.2349 60.2204 40.4645 54.45 40.4645 47.3129V41.2388H46.5386C53.6757 41.2388 59.4461 47.0092 59.4461 54.1463V60.2204Z" fill="#FF9C08"/>
<path d="M133.247 70.0907C132.791 69.6351 132.184 69.3314 131.576 69.3314H126.261V59.461C126.261 48.1479 117.074 38.9609 105.761 38.9609C100.75 38.9609 95.8908 40.7831 92.1704 44.1239C91.2593 44.959 91.1834 46.4016 92.0185 47.3128C92.8537 48.2239 94.2963 48.2998 95.2074 47.4646C98.0926 44.959 101.813 43.5164 105.761 43.5164C112.671 43.5164 118.593 47.9961 120.795 54.1461L111.456 61.9665C110.469 62.8017 110.393 64.2443 111.152 65.1555C111.608 65.6869 112.215 65.9906 112.898 65.9906C113.43 65.9906 113.961 65.8388 114.341 65.4592L121.63 59.3091C121.63 59.385 121.63 59.385 121.63 59.461V69.3314H56.5609C60.661 60.9795 69.0129 55.6647 78.4277 55.6647C79.7185 55.6647 80.7055 54.6776 80.7055 53.3869C80.7055 52.0961 79.7185 51.1091 78.4277 51.1091C72.2777 51.1091 66.5073 53.0072 61.7239 56.4239V54.1461C61.7239 45.7942 54.8906 38.9609 46.5387 38.9609H40.4646C39.1738 38.9609 38.1868 39.9479 38.1868 41.2387V47.3128C38.1868 55.6647 45.0201 62.498 53.372 62.498H55.422C53.9035 64.548 52.5368 66.8258 51.5498 69.3314H40.4646C39.7812 69.3314 39.1738 69.6351 38.7942 70.0907C38.4145 70.5462 38.1108 71.2296 38.1868 71.9129L44.9442 125.973C45.5516 130.908 49.8035 134.628 54.7387 134.628H117.226C122.161 134.628 126.413 130.908 127.021 125.973L133.778 71.9129C133.93 71.2296 133.702 70.6221 133.247 70.0907ZM42.7423 47.3128V43.5164H46.5387C52.385 43.5164 57.1683 48.2998 57.1683 54.1461V57.9424H53.372C47.5257 57.9424 42.7423 53.1591 42.7423 47.3128ZM122.541 125.441C122.237 128.099 119.959 130.073 117.302 130.073H54.7387C52.0813 130.073 49.8035 128.099 49.4998 125.441L43.046 73.887H128.995L122.541 125.441Z" fill="#090909"/>
</g>
</g>
<defs>
<clipPath id="clip0_1_242">
<rect width="172" height="172" fill="white" transform="translate(0 0.921875)"/>
</clipPath>
</defs>
</svg>
