<svg width="172" height="173" viewBox="0 0 172 173" fill="none" xmlns="http://www.w3.org/2000/svg">
<g clip-path="url(#clip0_1_215)">
<path d="M86 172.922C133.496 172.922 172 134.418 172 86.9219C172 39.4254 133.496 0.921875 86 0.921875C38.5035 0.921875 0 39.4254 0 86.9219C0 134.418 38.5035 172.922 86 172.922Z" fill="#FFF3E0"/>
<mask id="mask0_1_215" style="mask-type:alpha" maskUnits="userSpaceOnUse" x="0" y="0" width="172" height="173">
<path d="M86 172.922C133.496 172.922 172 134.418 172 86.9219C172 39.4254 133.496 0.921875 86 0.921875C38.5035 0.921875 0 39.4254 0 86.9219C0 134.418 38.5035 172.922 86 172.922Z" fill="#F0ECE8"/>
</mask>
<g mask="url(#mask0_1_215)">
<path d="M123.269 83.0621V136.709H48.7407V83.0621L86.0047 44.4062L123.269 83.0621Z" fill="white"/>
<path d="M60.6267 136.71V94.7343H81.2932V136.71H60.6267ZM86.0047 36.0542L36.3195 86.382L42.6372 92.6997L86.0047 47.6189L129.372 92.6997L135.69 86.382L123.269 73.8536V44.4065H110.847V61.2181L86.0047 36.0542Z" fill="#FF9C08"/>
<path d="M69.4073 80.1713C72.7268 61.5393 99.1757 61.5393 102.495 80.1713H69.4073Z" fill="#FF9C08"/>
<path d="M123.269 139.922H48.7408C46.9204 139.922 45.5284 138.53 45.5284 136.71V93.7703H40.4956C39.639 93.7703 38.7823 93.449 38.1399 92.8066L33.9637 88.6304C32.6788 87.3455 32.6788 85.418 33.9637 84.1331L83.649 33.8053C84.8269 32.6274 86.9685 32.6274 88.2534 33.8053L107.528 53.401V44.4063C107.528 42.5859 108.92 41.1939 110.74 41.1939H123.162C124.982 41.1939 126.374 42.5859 126.374 44.4063V72.4613L137.832 84.1331C139.117 85.418 139.117 87.3455 137.832 88.6304L133.655 92.8066C133.013 93.449 132.263 93.7703 131.407 93.7703H126.374V136.71C126.481 138.53 124.982 139.922 123.269 139.922ZM51.9532 133.497H119.949V90.5579C119.949 89.7012 120.27 88.8446 120.913 88.3092C121.555 87.6667 122.412 87.3455 123.162 87.3455H130.122L131.086 86.3817L120.913 76.102C120.27 75.4596 119.949 74.71 119.949 73.8533V47.6187H113.953V61.2179C113.953 62.5028 113.203 63.6807 111.918 64.2161C110.74 64.7515 109.348 64.4303 108.385 63.4666L86.0047 40.6585L40.9239 86.3817L41.8877 87.3455H48.8479C49.7045 87.3455 50.5612 87.6667 51.0966 88.3092C51.7391 88.9517 52.0603 89.7012 52.0603 90.5579V133.497H51.9532Z" fill="#090909"/>
<path d="M90.7163 94.7344H111.383V115.722H90.7163V94.7344Z" fill="#FF9C08"/>
<path d="M70.9065 101.052C69.7989 101.052 68.7367 101.492 67.9535 102.275C67.1703 103.058 66.7303 104.121 66.7303 105.228C66.7303 106.336 67.1703 107.398 67.9535 108.181C68.7367 108.964 69.7989 109.404 70.9065 109.404C72.0141 109.404 73.0763 108.964 73.8594 108.181C74.6426 107.398 75.0826 106.336 75.0826 105.228C75.0826 104.121 74.6426 103.058 73.8594 102.275C73.0763 101.492 72.0141 101.052 70.9065 101.052Z" fill="white"/>
</g>
</g>
<defs>
<clipPath id="clip0_1_215">
<rect width="172" height="172" fill="white" transform="translate(0 0.921875)"/>
</clipPath>
</defs>
</svg>
